<svg id="svg" xmlns="http://www.w3.org/2000/svg" xmlns:xlink="http://www.w3.org/1999/xlink" width="400" height="400" viewBox="0, 0, 400,400"><g id="svgg"><path id="path0" d="M243.583 50.900 C 245.241 52.666,245.600 52.984,245.600 52.683 C 245.600 52.619,244.745 51.764,243.700 50.783 L 241.800 49.000 243.583 50.900 M181.293 336.900 L 181.400 379.800 182.891 382.923 C 189.865 397.529,210.135 397.529,217.109 382.923 L 218.600 379.800 218.707 336.900 L 218.814 294.000 200.000 294.000 L 181.186 294.000 181.293 336.900 " stroke="none" fill="#fcd4a4" fill-rule="evenodd"></path><path id="path1" d="M225.316 10.500 C 226.922 41.327,252.073 66.354,283.700 68.598 L 287.600 68.875 287.600 62.437 L 287.600 56.000 285.270 56.000 C 261.246 56.000,239.799 34.991,237.802 9.500 L 237.528 6.000 231.305 6.000 L 225.081 6.000 225.316 10.500 " stroke="none" fill="#e3eaea" fill-rule="evenodd"></path><path id="path2" d="M168.852 6.443 C 140.762 8.940,117.396 31.034,113.024 59.234 C 112.440 63.004,112.389 73.403,112.489 168.600 L 112.600 273.800 113.708 276.931 C 116.758 285.555,123.514 291.552,132.266 293.407 C 137.202 294.453,263.882 294.262,268.303 293.203 C 277.542 290.988,284.459 284.152,286.826 274.898 C 287.581 271.945,287.600 269.419,287.600 170.395 L 287.600 68.918 283.375 68.645 C 252.296 66.635,225.263 39.444,225.195 10.123 C 225.192 8.846,225.081 7.395,224.948 6.900 L 224.707 6.000 198.653 6.055 C 184.324 6.085,170.913 6.260,168.852 6.443 M178.400 94.900 C 181.458 96.987,181.200 90.183,181.199 168.794 C 181.199 234.835,181.157 239.083,180.499 240.392 C 178.323 244.724,171.840 244.732,169.541 240.406 C 168.384 238.229,168.384 99.371,169.541 97.194 C 170.660 95.087,172.519 94.000,175.000 94.000 C 176.501 94.000,177.449 94.251,178.400 94.900 M228.400 94.900 C 231.458 96.987,231.200 90.183,231.200 168.800 C 231.200 236.368,231.172 239.065,230.459 240.406 C 228.160 244.732,221.677 244.724,219.501 240.392 C 218.381 238.163,218.419 99.304,219.541 97.194 C 220.660 95.087,222.519 94.000,225.000 94.000 C 226.501 94.000,227.449 94.251,228.400 94.900 " stroke="none" fill="#dfdce1" fill-rule="evenodd"></path><path id="path3" d="M171.600 94.900 C 168.542 96.987,168.800 90.183,168.800 168.800 C 168.800 236.368,168.828 239.065,169.541 240.406 C 171.840 244.732,178.323 244.724,180.499 240.392 C 181.619 238.163,181.581 99.304,180.459 97.194 C 179.340 95.087,177.481 94.000,175.000 94.000 C 173.499 94.000,172.551 94.251,171.600 94.900 M221.600 94.900 C 218.542 96.987,218.800 90.183,218.801 168.794 C 218.801 234.835,218.843 239.083,219.501 240.392 C 221.677 244.724,228.160 244.732,230.459 240.406 C 231.616 238.229,231.616 99.371,230.459 97.194 C 229.340 95.087,227.481 94.000,225.000 94.000 C 223.499 94.000,222.551 94.251,221.600 94.900 " stroke="none" fill="#d8d4db" fill-rule="evenodd"></path></g></svg>