<svg id="icons" enable-background="new 0 0 64 64" height="512" viewBox="0 0 64 64" width="512" xmlns="http://www.w3.org/2000/svg"><path d="m38 1h-4.25l3.25 10.531 9 2.031v-4.562c-4.422 0-8-3.578-8-8z" fill="#e6e9ed"/><path d="m35 59.99v.01c0 1.65-1.34 3-3 3s-3-1.35-3-3v-.01-12.99h6z" fill="#ffd2a6"/><path d="m46 11v32c0 2.21-1.79 4-4 4h-7-6-7.01c-2.21 0-3.99-1.79-3.99-4v-32c0-5.53 4.47-10 10-10h8c0 5.521 4.47 10 10 10z" fill="#965353"/><g fill="#844747"><path d="m28.002 39.008c-.553 0-1-.447-1-1v-22.006c0-.553.447-1 1-1s1 .447 1 1v22.006c0 .553-.447 1-1 1z"/><path d="m36 39.008c-.553 0-1-.447-1-1v-22.006c0-.553.447-1 1-1s1 .447 1 1v22.006c0 .553-.447 1-1 1z"/></g></svg>